<svg xmlns="http://www.w3.org/2000/svg" width="96" height="96" viewBox="0 0 96 96" fill="none"><metadata><rdf:RDF xmlns:rdf="http://www.w3.org/1999/02/22-rdf-syntax-ns#" xmlns:dc="http://purl.org/dc/elements/1.1/"><rdf:Description><dc:creator>RealFaviconGenerator</dc:creator><dc:source>https://realfavicongenerator.net</dc:source></rdf:Description></rdf:RDF></metadata><circle cx="48" cy="48" r="48" fill="#9DBAC4"></circle><path d="M56.18 65.064L55.484 74.17C54.4787 75.8327 53.2027 77.3213 51.656 78.636C50.148 79.912 48.35 80.9367 46.262 81.71C44.2127 82.4447 41.854 82.812 39.186 82.812C35.1647 82.7733 31.588 81.884 28.456 80.144C25.324 78.404 22.8687 75.968 21.09 72.836C19.35 69.6653 18.48 65.934 18.48 61.642C18.48 57.4273 19.35 53.754 21.09 50.622C22.83 47.4513 25.266 44.996 28.398 43.256C31.5687 41.4773 35.2807 40.588 39.534 40.588C42.3953 40.588 44.9667 40.9747 47.248 41.748C49.568 42.4827 51.5787 43.4107 53.28 44.532L54.44 52.71H53.918C53.0673 49.3073 51.3273 46.736 48.698 44.996C46.0687 43.2173 43.014 42.328 39.534 42.328C36.1313 42.328 33.1733 43.14 30.66 44.764C28.1853 46.3493 26.252 48.592 24.86 51.492C23.5067 54.3533 22.83 57.7173 22.83 61.584C22.83 65.4507 23.5067 68.834 24.86 71.734C26.252 74.634 28.166 76.896 30.602 78.52C33.0767 80.144 35.938 80.9947 39.186 81.072C41.9313 81.072 44.464 80.5693 46.784 79.564C49.1427 78.52 51.1147 76.838 52.7 74.518C54.2853 72.1593 55.2907 69.008 55.716 65.064H56.18Z" fill="black"></path><path d="M57.319 12.734C58.055 12.734 58.837 12.78 59.665 12.872C60.539 12.964 61.367 13.102 62.149 13.286C62.977 13.424 63.713 13.585 64.357 13.769C65.047 13.907 65.576 14.068 65.944 14.252V21.911H65.323C65.323 19.703 64.564 17.978 63.046 16.736C61.528 15.448 59.688 14.804 57.526 14.804C54.996 14.804 52.949 15.609 51.385 17.219C49.821 18.783 49.039 20.623 49.039 22.739C49.039 23.613 49.223 24.648 49.591 25.844C50.005 26.994 50.741 28.075 51.799 29.087L65.392 41.645C66.772 42.933 67.692 44.313 68.152 45.785C68.612 47.257 68.842 48.683 68.842 50.063C68.842 53.881 67.669 56.986 65.323 59.378C63.023 61.77 59.895 62.966 55.939 62.966C54.835 62.966 53.524 62.851 52.006 62.621C50.534 62.391 49.085 62 47.659 61.448C46.279 60.85 45.129 60.091 44.209 59.171C44.071 58.435 44.002 57.515 44.002 56.411C44.002 55.307 44.094 54.157 44.278 52.961C44.462 51.719 44.715 50.592 45.037 49.58H45.658C45.428 51.926 45.727 53.973 46.555 55.721C47.383 57.469 48.579 58.803 50.143 59.723C51.753 60.597 53.57 60.988 55.594 60.896C58.124 60.758 60.286 59.884 62.08 58.274C63.92 56.618 64.84 54.41 64.84 51.65C64.84 50.316 64.61 49.12 64.15 48.062C63.69 46.958 63.023 46.015 62.149 45.233L48.901 32.951C47.521 31.663 46.555 30.26 46.003 28.742C45.451 27.178 45.175 25.729 45.175 24.395C45.175 22.463 45.635 20.6 46.555 18.806C47.475 17.012 48.832 15.563 50.626 14.459C52.466 13.309 54.697 12.734 57.319 12.734ZM65.944 13.424V14.873H60.7V13.424H65.944Z" fill="black"></path></svg>