<svg xmlns="http://www.w3.org/2000/svg" width="78" height="75" viewBox="0 0 78 75" fill="none"><metadata><rdf:RDF xmlns:rdf="http://www.w3.org/1999/02/22-rdf-syntax-ns#" xmlns:dc="http://purl.org/dc/elements/1.1/"><rdf:Description><dc:creator>RealFaviconGenerator</dc:creator><dc:source>https://realfavicongenerator.net</dc:source></rdf:Description></rdf:RDF></metadata><circle cx="34.5" cy="40.5" r="34.5" fill="#9DBAC4"></circle><path d="M41.53 51.444L41.014 58.195C40.2687 59.4277 39.3227 60.5313 38.176 61.506C37.058 62.452 35.725 63.2117 34.177 63.785C32.6577 64.3297 30.909 64.602 28.931 64.602C25.9497 64.5733 23.298 63.914 20.976 62.624C18.654 61.334 16.8337 59.528 15.515 57.206C14.225 54.8553 13.58 52.089 13.58 48.907C13.58 45.7823 14.225 43.059 15.515 40.737C16.805 38.3863 18.611 36.566 20.933 35.276C23.2837 33.9573 26.0357 33.298 29.189 33.298C31.3103 33.298 33.2167 33.5847 34.908 34.158C36.628 34.7027 38.1187 35.3907 39.38 36.222L40.24 42.285H39.853C39.2223 39.7623 37.9323 37.856 35.983 36.566C34.0337 35.2473 31.769 34.588 29.189 34.588C26.6663 34.588 24.4733 35.19 22.61 36.394C20.7753 37.5693 19.342 39.232 18.31 41.382C17.3067 43.5033 16.805 45.9973 16.805 48.864C16.805 51.7307 17.3067 54.239 18.31 56.389C19.342 58.539 20.761 60.216 22.567 61.42C24.4017 62.624 26.523 63.2547 28.931 63.312C30.9663 63.312 32.844 62.9393 34.564 62.194C36.3127 61.42 37.7747 60.173 38.95 58.453C40.1253 56.7043 40.8707 54.368 41.186 51.444H41.53Z" fill="black"></path><path d="M40.801 13.586C41.345 13.586 41.923 13.62 42.535 13.688C43.181 13.756 43.793 13.858 44.371 13.994C44.983 14.096 45.527 14.215 46.003 14.351C46.513 14.453 46.904 14.572 47.176 14.708V20.369H46.717C46.717 18.737 46.156 17.462 45.034 16.544C43.912 15.592 42.552 15.116 40.954 15.116C39.084 15.116 37.571 15.711 36.415 16.901C35.259 18.057 34.681 19.417 34.681 20.981C34.681 21.627 34.817 22.392 35.089 23.276C35.395 24.126 35.939 24.925 36.721 25.673L46.768 34.955C47.788 35.907 48.468 36.927 48.808 38.015C49.148 39.103 49.318 40.157 49.318 41.177C49.318 43.999 48.451 46.294 46.717 48.062C45.017 49.83 42.705 50.714 39.781 50.714C38.965 50.714 37.996 50.629 36.874 50.459C35.786 50.289 34.715 50 33.661 49.592C32.641 49.15 31.791 48.589 31.111 47.909C31.009 47.365 30.958 46.685 30.958 45.869C30.958 45.053 31.026 44.203 31.162 43.319C31.298 42.401 31.485 41.568 31.723 40.82H32.182C32.012 42.554 32.233 44.067 32.845 45.359C33.457 46.651 34.341 47.637 35.497 48.317C36.687 48.963 38.03 49.252 39.526 49.184C41.396 49.082 42.994 48.436 44.32 47.246C45.68 46.022 46.36 44.39 46.36 42.35C46.36 41.364 46.19 40.48 45.85 39.698C45.51 38.882 45.017 38.185 44.371 37.607L34.579 28.529C33.559 27.577 32.845 26.54 32.437 25.418C32.029 24.262 31.825 23.191 31.825 22.205C31.825 20.777 32.165 19.4 32.845 18.074C33.525 16.748 34.528 15.677 35.854 14.861C37.214 14.011 38.863 13.586 40.801 13.586ZM47.176 14.096V15.167H43.3V14.096H47.176Z" fill="black"></path></svg>