<?xml version="1.0" encoding="UTF-8"?>
<svg version="1.1" xmlns="http://www.w3.org/2000/svg" width="1649" height="343">
<path d="M0 0 C544.17 0 1088.34 0 1649 0 C1649 113.19 1649 226.38 1649 343 C1104.83 343 560.66 343 0 343 C0 229.81 0 116.62 0 0 Z " fill="#FDFDFD" transform="translate(0,0)"/>
<path d="M0 0 C0.77746582 0.30905273 1.55493164 0.61810547 2.35595703 0.93652344 C27.86654141 11.48793956 46.46387861 32.96020901 57.3125 58 C62.28697424 70.17389514 64.73325255 81.88667521 65.3125 95 C65.36164551 96.02303223 65.41079102 97.04606445 65.46142578 98.10009766 C66.74138906 129.05318805 60.02934549 157.7054525 39.546875 181.578125 C25.78576409 196.49401445 5.81817898 207.91210745 -14.76000977 208.85009766 C-26.77786181 208.9481398 -37.64664888 206.74584469 -48.6875 202 C-49.6775 201.01 -49.6775 201.01 -50.6875 200 C-51.94106794 199.49635902 -53.21521122 199.04261777 -54.5 198.625 C-58.15776015 197.3124704 -60.86150416 195.73768347 -63.6875 193 C-63.6875 192.34 -63.6875 191.68 -63.6875 191 C-64.23535156 190.92652344 -64.78320312 190.85304687 -65.34765625 190.77734375 C-78.39935378 186.441304 -89.3581047 167.49328466 -95.3671875 156.07421875 C-99.72748475 147.34667419 -103.30306322 138.4772284 -105.6875 129 C-105.97238281 127.87722656 -106.25726562 126.75445312 -106.55078125 125.59765625 C-110.62550607 108.73872368 -110.44478196 92.34615043 -108.375 75.1875 C-108.25737305 74.18009766 -108.13974609 73.17269531 -108.01855469 72.13476562 C-107.28362074 66.54475652 -106.10775063 62.08125917 -103.6875 57 C-102.86917666 54.3922763 -102.1485039 51.77421214 -101.43359375 49.13671875 C-100.6875 47 -100.6875 47 -98.6875 45 C-98.08675403 43.49386436 -97.53000578 41.96996016 -97 40.4375 C-94.78337563 34.75740005 -91.65093603 30.5846889 -87.6875 26 C-87.0171875 25.19691406 -86.346875 24.39382812 -85.65625 23.56640625 C-78.4574354 15.20691321 -70.24146279 6.7799106 -59.7578125 2.796875 C-57.64878024 1.98509655 -55.78333348 0.97611344 -53.8125 -0.125 C-38.92356873 -7.46827872 -15.1877978 -6.06705658 0 0 Z " fill="#FDFDFD" transform="translate(678.6875,47)"/>
<path d="M0 0 C1.09892578 0.12600586 2.19785156 0.25201172 3.33007812 0.38183594 C8.77814895 1.05653526 13.90495796 1.91472982 19.125 3.625 C19.125 4.285 19.125 4.945 19.125 5.625 C20.09308594 5.69976562 21.06117188 5.77453125 22.05859375 5.8515625 C26.92231388 6.55736974 30.89695661 8.69383293 35.1875 11 C36.02023437 11.44480713 36.85296875 11.88961426 37.7109375 12.34790039 C60.84467867 25.06746027 80.19882553 45.92164879 87.71875 71.65698242 C88.26419594 73.80640504 88.76608441 75.9609295 89.25 78.125 C89.41886719 78.84558594 89.58773437 79.56617187 89.76171875 80.30859375 C91.40822223 87.4780144 92.28153116 94.45587251 92.29296875 101.82421875 C92.29629715 102.581689 92.29962555 103.33915924 92.30305481 104.11958313 C92.30808526 105.70870359 92.31046435 107.29783448 92.31030273 108.88696289 C92.31250325 111.31609262 92.33073773 113.74477767 92.34960938 116.17382812 C92.35254134 117.72395679 92.35452745 119.2740876 92.35546875 120.82421875 C92.36265427 121.5471965 92.36983978 122.27017426 92.37724304 123.01506042 C92.36024299 126.76044068 92.09007077 129.41337924 90.125 132.625 C89.78388906 134.71227109 89.78388906 134.71227109 89.6875 136.875 C89.23857437 141.55447899 87.95116027 145.32102061 86.125 149.625 C85.76277344 150.5428125 85.40054688 151.460625 85.02734375 152.40625 C78.29656254 169.20073945 68.49840749 184.00793026 55.8828125 197 C55.33262451 197.57194092 54.78243652 198.14388184 54.21557617 198.7331543 C53.13544347 199.8467869 52.04223972 200.94792785 50.93481445 202.03442383 C48.30349605 204.74704822 47.1683641 206.1928543 46.78515625 210.01171875 C46.95337891 211.30529297 46.95337891 211.30529297 47.125 212.625 C47.70507812 212.87894531 48.28515625 213.13289062 48.8828125 213.39453125 C53.35622698 215.3654911 57.77344022 217.39343088 62.125 219.625 C62.125 220.285 62.125 220.945 62.125 221.625 C63.011875 221.893125 63.89875 222.16125 64.8125 222.4375 C68.125 223.625 68.125 223.625 70.375 225 C74.41406271 227.38671888 78.75130822 228.95195674 83.125 230.625 C83.125 231.285 83.125 231.945 83.125 232.625 C83.888125 232.83125 84.65125 233.0375 85.4375 233.25 C88.70737691 234.46927613 91.46695892 235.86247837 94.5 237.5625 C98.9776107 240.06219595 103.2919246 241.93342361 108.125 243.625 C110.47346704 244.59307038 112.79762242 245.60677231 115.125 246.625 C115.125 247.285 115.125 247.945 115.125 248.625 C116.5171875 248.99625 116.5171875 248.99625 117.9375 249.375 C125.02300186 251.4095919 131.87005836 254.06183657 138.625 257 C181.64748402 275.05061749 230.00580964 279.22564851 274.98828125 266.359375 C278.1484039 265.61952063 280.89236793 265.48806551 284.125 265.625 C284.19140625 267.90625 284.19140625 267.90625 283.125 270.625 C280.27996116 272.2792254 277.1964434 273.15908397 274.0625 274.125 C273.15072998 274.42196777 272.23895996 274.71893555 271.29956055 275.02490234 C269.44248576 275.62676672 267.5825105 276.2197559 265.71972656 276.80371094 C263.50483226 277.50477458 261.31007245 278.24148781 259.1171875 279.0078125 C243.27028137 284.35740501 225.88099308 288.37942175 209.125 288.625 C208.31949707 288.63869629 207.51399414 288.65239258 206.68408203 288.66650391 C160.50031664 289.3489416 160.50031664 289.3489416 144.11328125 282.4453125 C138.41391785 280.0939052 132.43920786 278.26340217 126.5 276.625 C119.94080229 274.68153401 113.8280495 272.15875324 107.97265625 268.62890625 C104.93903946 266.98061975 101.72014944 265.81652337 98.50390625 264.57421875 C95.60838733 263.41886391 92.8820697 262.07608932 90.125 260.625 C90.125 259.965 90.125 259.305 90.125 258.625 C89.2896875 258.36976563 89.2896875 258.36976563 88.4375 258.109375 C83.02909391 256.39184063 78.14437104 254.27157745 73.125 251.625 C73.125 250.965 73.125 250.305 73.125 249.625 C72.44050781 249.53347656 71.75601563 249.44195312 71.05078125 249.34765625 C67.42443637 248.45196359 64.57452692 246.87473718 61.3125 245.0625 C60.71501953 244.73314453 60.11753906 244.40378906 59.50195312 244.06445312 C58.03966002 243.25726733 56.5818601 242.44195083 55.125 241.625 C55.125 240.965 55.125 240.305 55.125 239.625 C54.3825 239.50125 53.64 239.3775 52.875 239.25 C50.32358515 238.67013299 48.3982427 237.88791261 46.125 236.625 C46.125 235.965 46.125 235.305 46.125 234.625 C45.3825 234.50125 44.64 234.3775 43.875 234.25 C41.32358515 233.67013299 39.3982427 232.88791261 37.125 231.625 C37.125 230.965 37.125 230.305 37.125 229.625 C36.3825 229.50125 35.64 229.3775 34.875 229.25 C32.32358515 228.67013299 30.3982427 227.88791261 28.125 226.625 C28.125 225.965 28.125 225.305 28.125 224.625 C16.70385939 225.61928028 6.12266112 227.35962761 -4.875 230.625 C-8.0404057 231.5583249 -10.87328076 231.75378842 -14.171875 231.7578125 C-15.20497803 231.76014893 -16.23808105 231.76248535 -17.30249023 231.76489258 C-22.82712554 231.74012935 -28.35079805 231.69973455 -33.875 231.625 C-34.68243652 231.61774902 -35.48987305 231.61049805 -36.32177734 231.60302734 C-57.28950351 231.3190944 -77.42937716 223.94141935 -93.94140625 211.1171875 C-95.24028361 210.11482153 -96.5615342 209.1408545 -97.90234375 208.1953125 C-113.4786276 197.13346025 -123.59166565 178.88089985 -130.875 161.625 C-131.27460937 160.72265625 -131.67421875 159.8203125 -132.0859375 158.890625 C-132.875 156.625 -132.875 156.625 -132.875 152.625 C-133.535 152.625 -134.195 152.625 -134.875 152.625 C-137.751512 137.85227479 -139.75605835 123.68451328 -138.875 108.625 C-138.83101074 107.86525879 -138.78702148 107.10551758 -138.74169922 106.32275391 C-137.78246204 91.97120864 -135.27458255 76.46856126 -128.0859375 63.828125 C-126.74506188 61.4808816 -126.74506188 61.4808816 -125.47265625 58.2734375 C-116.77934122 38.42122177 -97.31396416 17.70816047 -77.0625 9.5625 C-76.22460938 9.253125 -75.38671875 8.94375 -74.5234375 8.625 C-72.6928496 7.93380457 -70.88547877 7.1790186 -69.1015625 6.375 C-47.61594846 -3.30216665 -22.94385389 -2.63343162 0 0 Z M-59.90625 15.453125 C-61.875 16.625 -61.875 16.625 -65.25 17.875 C-79.18572461 23.57892449 -92.68084811 40.1475198 -98.75 53.4375 C-99.469401 55.16209145 -100.17910663 56.89078955 -100.875 58.625 C-101.41125 59.800625 -101.9475 60.97625 -102.5 62.1875 C-103.99857991 65.93394977 -105.13592908 69.70422071 -106.2265625 73.5859375 C-106.875 75.625 -106.875 75.625 -107.875 76.625 C-114.85330365 112.49777377 -110.38816246 149.13476231 -89.67578125 179.890625 C-83.40425301 188.42778386 -76.56612609 197.41705279 -67.875 203.625 C-66.885 203.625 -65.895 203.625 -64.875 203.625 C-64.875 204.285 -64.875 204.945 -64.875 205.625 C-63.03099697 207.15127883 -63.03099697 207.15127883 -60.6875 208.625 C-59.52154297 209.3984375 -59.52154297 209.3984375 -58.33203125 210.1875 C-55.89824055 211.61140299 -53.5099077 212.63313622 -50.875 213.625 C-49.885 214.07875 -48.895 214.5325 -47.875 215 C-46.54447372 215.54852563 -45.21072406 216.08925587 -43.875 216.625 C-43.05128906 216.98207031 -42.22757813 217.33914062 -41.37890625 217.70703125 C-24.48748471 224.05533443 -6.50878618 221.97260605 9.671875 214.76953125 C28.22937291 205.97974541 40.8590759 193.19771266 51.125 175.625 C51.64449219 174.79613281 52.16398438 173.96726563 52.69921875 173.11328125 C57.51264655 164.71286068 60.16044648 155.05031459 62.125 145.625 C62.29563965 144.84672852 62.4662793 144.06845703 62.64208984 143.26660156 C64.1208997 136.00794553 64.4366506 129.01988333 64.375 121.625 C64.36484863 119.85648682 64.36484863 119.85648682 64.35449219 118.05224609 C64.14822642 100.41172619 62.89767775 83.86216592 54.37109375 68.0390625 C53.125 65.625 53.125 65.625 51.72265625 62.25390625 C46.67568951 50.79025808 38.89147753 41.40429402 30.125 32.625 C29.40828125 31.89667969 28.6915625 31.16835937 27.953125 30.41796875 C19.34695372 22.21622281 8.79894884 16.35573103 -2.25 12.125 C-2.87914307 11.88185059 -3.50828613 11.63870117 -4.15649414 11.38818359 C-20.77126443 5.43059236 -44.89410023 6.20651101 -59.90625 15.453125 Z " fill="#0D0C0C" transform="translate(679.875,34.375)"/>
<path d="M0 0 C3.1875 -0.3125 3.1875 -0.3125 6 0 C6.18175781 0.74765625 6.36351562 1.4953125 6.55078125 2.265625 C6.80214844 3.25046875 7.05351563 4.2353125 7.3125 5.25 C7.55613281 6.22453125 7.79976562 7.1990625 8.05078125 8.203125 C8.83816862 11.00414135 8.83816862 11.00414135 10.515625 13.0078125 C12.36740195 15.49309209 12.79559957 17.60288494 13.4375 20.625 C15.18015313 28.06513564 17.75427096 34.71826245 21.375 41.4375 C24.30656435 47.1106199 26.05165982 53.12148009 27.85693359 59.22436523 C29.21457361 63.76330615 30.86272644 67.75867475 33 72 C34.37234042 75.80719553 35.55125173 79.67825427 36.75 83.54296875 C38.06042739 87.63122919 39.3351465 90.59976343 42 94 C42.69597443 95.99750143 43.31486977 98.02273372 43.875 100.0625 C45.40964683 105.29425055 47.29989248 110.05610149 49.640625 114.96875 C51.60302926 119.34468594 53.23116684 123.83284342 54.85693359 128.34301758 C55.95606746 131.3594291 57.12104138 134.24027167 58.56640625 137.109375 C60.01512 140.03048718 60.92908941 142.80320764 61.8125 145.9375 C64.42812085 154.71995 67.87678522 163.11985582 71.53125 171.51953125 C72.96494382 174.91692804 74.22396355 178.33104296 75.4375 181.8125 C75.87320312 183.03453125 76.30890625 184.2565625 76.7578125 185.515625 C77.48853021 187.56531115 78.21457953 189.61669076 78.9296875 191.671875 C82.60021878 201.61154379 88.29800453 212.59013854 97 219 C100.23434734 220.4730488 100.23434734 220.4730488 103 221 C103 221.66 103 222.32 103 223 C104.2375 222.95875 105.475 222.9175 106.75 222.875 C110.01637962 222.86341709 112.2146947 223.1431298 115 225 C114.67 226.65 114.34 228.3 114 230 C106.5069832 230.07593983 99.01406529 230.12855332 91.52075195 230.16479492 C88.97058402 230.17990005 86.42044214 230.20038533 83.87036133 230.22631836 C80.20908181 230.26262504 76.54814515 230.27970915 72.88671875 230.29296875 C71.7428923 230.30845261 70.59906586 230.32393646 69.420578 230.33988953 C67.82926811 230.34022942 67.82926811 230.34022942 66.20581055 230.34057617 C65.27093307 230.34723801 64.3360556 230.35389984 63.37284851 230.36076355 C61 230 61 230 59.18113708 228.62771606 C57.46619874 226.26437254 57.89417513 224.63655561 58.1484375 221.76171875 C58.34899379 213.73342611 55.55259269 207.11782692 52.625 199.8125 C49.53951444 191.94217727 46.69016016 184.30568606 45 176 C44.09779961 174.14401313 44.09779961 174.14401313 43 172.375 C40.95068731 168.91678483 40.0520621 165.85756103 39 162 C38.525625 161.071875 38.05125 160.14375 37.5625 159.1875 C35.81282586 155.61816475 34.88180665 152.11984986 33.94140625 148.26953125 C32.7504727 145.39844249 31.66157069 144.58785373 29 143 C26.16405559 142.5536422 26.16405559 142.5536422 23.00976562 142.62768555 C21.19768616 142.61834236 21.19768616 142.61834236 19.34899902 142.60881042 C18.04789185 142.61802017 16.74678467 142.62722992 15.40625 142.63671875 C14.05391439 142.63723767 12.70157803 142.63671873 11.34924316 142.63520813 C8.5180329 142.63529774 5.68710806 142.64570335 2.85595703 142.66381836 C-0.76897911 142.68650537 -4.39349842 142.68704848 -8.01848602 142.68030071 C-10.81007578 142.67695558 -13.60157091 142.68360102 -16.3931427 142.69342995 C-18.37842019 142.69913872 -20.36371381 142.69784757 -22.34899902 142.69645691 C-24.16107849 142.71075493 -24.16107849 142.71075493 -26.00976562 142.7253418 C-27.6038324 142.73225288 -27.6038324 142.73225288 -29.23010254 142.73930359 C-32.05156532 143.00485321 -33.67709331 143.39623203 -36 145 C-37.16472053 147.53203402 -38.07077024 149.88632218 -38.91796875 152.5234375 C-39.17683868 153.28885864 -39.43570862 154.05427979 -39.7024231 154.84289551 C-40.54566939 157.34889829 -41.3670967 159.8614353 -42.1875 162.375 C-42.76160226 164.10206189 -43.33672263 165.82878566 -43.9128418 167.55517578 C-45.07176852 171.03775884 -46.22094359 174.52334064 -47.36230469 178.01171875 C-48.61563161 181.83980913 -49.89010397 185.6601085 -51.17955017 189.47616577 C-52.23492623 192.60546206 -53.2731015 195.74036035 -54.3125 198.875 C-54.69108154 199.99438965 -55.06966309 201.1137793 -55.4597168 202.26708984 C-57.33937736 208.04661109 -58.64270531 212.91195629 -58 219 C-55.47519307 221.52480693 -53.86176966 221.55738633 -50.375 222.125 C-48.87066406 222.37636719 -48.87066406 222.37636719 -47.3359375 222.6328125 C-46.56507812 222.75398437 -45.79421875 222.87515625 -45 223 C-44.957279 224.66611905 -44.95936168 226.33382885 -45 228 C-46 229 -46 229 -48.36012268 229.12025452 C-49.40603073 229.11803391 -50.45193878 229.11581329 -51.52954102 229.11352539 C-52.71068985 229.11344986 -53.89183868 229.11337433 -55.10877991 229.11329651 C-56.3941716 229.10813522 -57.67956329 229.10297394 -59.00390625 229.09765625 C-60.9661338 229.09553383 -60.9661338 229.09553383 -62.96800232 229.09336853 C-66.45162859 229.0895441 -69.93521339 229.07971446 -73.41882324 229.06866455 C-76.97126708 229.05844882 -80.52371759 229.05387056 -84.07617188 229.04882812 C-91.05079832 229.03809212 -98.02539717 229.0210166 -105 229 C-104.67 227.35 -104.34 225.7 -104 224 C-102.38931641 223.67128906 -102.38931641 223.67128906 -100.74609375 223.3359375 C-89.54484276 221.10083687 -89.54484276 221.10083687 -81 214 C-80.50757813 213.38253906 -80.01515625 212.76507813 -79.5078125 212.12890625 C-74.52156183 204.88204971 -72.30935783 196.36381003 -69.6640625 188.0703125 C-68.08938662 183.16992118 -66.17641358 178.48275249 -64.12109375 173.765625 C-62.45781432 169.66248272 -61.22350197 165.4527944 -59.9921875 161.203125 C-59.0346535 158.11187351 -57.94172532 155.1147997 -56.78955078 152.09277344 C-55.46556586 148.58343554 -54.23815087 145.04033764 -53 141.5 C-51.29495032 136.62462358 -49.54766516 131.77111278 -47.72363281 126.93896484 C-46.56304628 123.8291881 -45.470411 120.69564882 -44.375 117.5625 C-41.72102193 110.00873707 -39.02355084 102.47095529 -36.3125 94.9375 C-35.74184814 93.35014038 -35.74184814 93.35014038 -35.15966797 91.73071289 C-33.14523948 86.13847845 -31.09705022 80.56174189 -29 75 C-28.37159523 73.29291617 -27.74621427 71.5847136 -27.125 69.875 C-26.61646484 68.47701172 -26.61646484 68.47701172 -26.09765625 67.05078125 C-25.32579581 64.90550366 -24.56363691 62.75672287 -23.80859375 60.60546875 C-21.86646503 55.08349149 -19.8822007 49.62546028 -17.5625 44.25 C-15.45470369 39.30326554 -13.72453544 34.2956251 -12.0625 29.1875 C-4.62110039 6.37474875 -4.62110039 6.37474875 0 0 Z " fill="#0E0D0D" transform="translate(1115,27)"/>
<path d="M0 0 C4.53855366 0.49065445 4.53855366 0.49065445 6.52172852 2.6796875 C8.21349348 5.33510191 9.25898915 7.91711425 10.33984375 10.875 C10.76330078 12.02613281 11.18675781 13.17726563 11.62304688 14.36328125 C12.05681641 15.56339844 12.49058594 16.76351562 12.9375 18 C13.58235352 19.75376953 13.58235352 19.75376953 14.24023438 21.54296875 C16.29784913 27.16940545 18.28649953 32.80957001 20.16015625 38.5 C21.45105088 42.41585436 22.83658484 46.22359801 24.5 50 C26.19012013 53.95735445 27.67768821 57.90509897 29 62 C30.58436483 66.87834074 32.4394415 71.5569943 34.44921875 76.2734375 C37.80304811 84.23622423 40.8527785 92.32912747 43.98242188 100.38183594 C44.82493642 102.5495725 45.66978309 104.71637339 46.515625 106.8828125 C48.62231249 112.30953281 50.63080295 117.75837788 52.5625 123.25 C54.14933301 127.73452806 55.86765259 132.06202998 57.86303711 136.37597656 C59.24032957 139.55466227 60.43910794 142.78989935 61.63671875 146.0390625 C64.92586689 154.87788612 68.36065816 163.6560933 71.84912109 172.41796875 C72.53255328 174.13809698 73.21289843 175.85945498 73.89013672 177.58203125 C77.39393135 186.49279116 80.99113242 195.33045007 85.1953125 203.9375 C85.5035495 204.58170898 85.8117865 205.22591797 86.12936401 205.88964844 C88.19374432 209.99411495 90.62912952 212.9024339 94 216 C94.48855469 216.55558594 94.97710937 217.11117187 95.48046875 217.68359375 C97.57214615 219.49566389 99.70224008 220.17075145 102.3125 221.0625 C103.28574219 221.40410156 104.25898438 221.74570313 105.26171875 222.09765625 C107.36435026 222.79053482 109.49086316 223.4112726 111.625 224 C114 225 114 225 114.9375 227.0625 C114.9684375 228.0215625 114.9684375 228.0215625 115 229 C113.33566541 230.66433459 111.34029467 230.13592164 109.05297852 230.14526367 C107.99840958 230.15164352 106.94384064 230.15802338 105.85731506 230.16459656 C104.70944016 230.16570938 103.56156525 230.1668222 102.37890625 230.16796875 C101.20867416 230.17129715 100.03844208 230.17462555 98.83274841 230.17805481 C96.35196324 230.18312909 93.87117122 230.18546298 91.39038086 230.18530273 C87.58240581 230.18748857 83.77472057 230.20563751 79.96679688 230.22460938 C77.562501 230.22754324 75.15820373 230.22952808 72.75390625 230.23046875 C71.03513023 230.24124702 71.03513023 230.24124702 69.28163147 230.25224304 C68.22391037 230.24916641 67.16618927 230.24608978 66.07641602 230.24291992 C64.6752932 230.24505745 64.6752932 230.24505745 63.24586487 230.24723816 C61 230 61 230 59 228 C58.99353998 226.10942818 59.07864683 224.21824994 59.20703125 222.33203125 C59.33174262 214.0175585 56.70149563 207.2608146 53.6875 199.6875 C53.18095659 198.36990246 52.67638945 197.05154341 52.17382812 195.73242188 C51.21786742 193.23216256 50.24901685 190.73834195 49.27197266 188.24609375 C48.24416017 185.62310049 47.23712289 182.99537171 46.25390625 180.35546875 C45.28492521 177.7624634 44.29141442 175.18923739 43.25 172.625 C41.89615909 169.27437444 40.58009547 165.91183844 39.29296875 162.53515625 C38.9877832 161.73835449 38.68259766 160.94155273 38.36816406 160.12060547 C37.7582373 158.52602779 37.15198032 156.93004047 36.54980469 155.33251953 C34.15432235 148.07226481 34.15432235 148.07226481 29 143 C26.9983125 142.90855217 24.99351744 142.88248303 22.98974609 142.88647461 C21.72858978 142.88655014 20.46743347 142.88662567 19.1680603 142.88670349 C17.78651897 142.89181051 16.40497804 142.89702651 15.0234375 142.90234375 C13.6138209 142.90420856 12.20420366 142.90563217 10.79458618 142.90663147 C7.08246068 142.91045167 3.37037422 142.92027772 -0.34173584 142.93133545 C-4.12886019 142.94156025 -7.91599083 142.94613138 -11.703125 142.95117188 C-19.13543448 142.96190042 -26.56771177 142.97897089 -34 143 C-34.63612561 144.40827302 -35.26974538 145.81767808 -35.90234375 147.22753906 C-36.43202759 148.40464447 -36.43202759 148.40464447 -36.97241211 149.60552979 C-38.53656543 153.25029689 -39.77884535 156.9791818 -41 160.75 C-41.23460937 161.45898438 -41.46921875 162.16796875 -41.7109375 162.8984375 C-43.15316371 167.28714736 -44.51635746 171.6959839 -45.85546875 176.1171875 C-47.34233961 180.97661298 -48.93862349 185.78856807 -50.61328125 190.5859375 C-51.060727 191.87884393 -51.50799195 193.17181294 -51.95507812 194.46484375 C-52.63677068 196.43560432 -53.32291541 198.40423761 -54.02270508 200.36865234 C-54.71288583 202.31147176 -55.38335219 204.26020374 -56.05078125 206.2109375 C-56.44950439 207.34837402 -56.84822754 208.48581055 -57.2590332 209.65771484 C-58.09632942 213.43451393 -57.76167503 216.23259444 -57 220 C-53.04 220.99 -49.08 221.98 -45 223 C-45 224.65 -45 226.3 -45 228 C-47.61521785 229.30760893 -49.53113401 229.11997548 -52.45947266 229.11352539 C-53.60050446 229.11344986 -54.74153625 229.11337433 -55.91714478 229.11329651 C-57.15362762 229.10813522 -58.39011047 229.10297394 -59.6640625 229.09765625 C-60.92640717 229.0962413 -62.18875183 229.09482635 -63.48934937 229.09336853 C-66.84638299 229.08871078 -70.203349 229.07972408 -73.56036377 229.06866455 C-76.98554906 229.0584377 -80.41074134 229.05386818 -83.8359375 229.04882812 C-90.55731043 229.03778238 -97.27865131 229.02103194 -104 229 C-104.625 227.125 -104.625 227.125 -105 225 C-102.42742943 222.42742943 -100.94897999 222.5991863 -97.375 222.1875 C-88.65939382 220.8129958 -82.95784107 217.22996432 -77.71875 210.09765625 C-74.12408304 203.61908602 -72.12037585 196.43997937 -69.82324219 189.42285156 C-68.70514621 186.13222747 -67.40191551 182.95735714 -66.0625 179.75 C-63.43102976 173.3182948 -61.22414851 166.79082151 -59.0625 160.1875 C-56.73810438 153.0879873 -54.33811768 146.06122591 -51.5625 139.125 C-48.20827475 130.7389537 -45.26939444 122.22771328 -42.34277344 113.68432617 C-39.80763128 106.2959347 -37.1806293 98.95066744 -34.453125 91.63134766 C-32.57538094 86.58654807 -30.76937395 81.52122775 -29 76.4375 C-26.98427467 70.6526904 -24.82198024 64.94371515 -22.5625 59.25 C-19.57919991 51.72571102 -17.00029253 44.10388595 -14.48901367 36.41088867 C-12.63289703 30.7701612 -10.56873785 25.29667184 -8.19140625 19.8515625 C-6.28510519 15.28894028 -4.71381492 10.61007162 -3.11328125 5.93359375 C-2 3 -2 3 0 0 Z " fill="#0C0B0B" transform="translate(273,27)"/>
<path d="M0 0 C8.70116929 -0.02314169 17.40232803 -0.04092443 26.10352135 -0.05181217 C30.14356954 -0.05703699 34.18359672 -0.06412739 38.22363281 -0.07543945 C42.120441 -0.08628254 46.01722895 -0.09227987 49.91405106 -0.09487724 C51.40284163 -0.09672892 52.89163107 -0.10034463 54.38041306 -0.10573006 C56.46115285 -0.11295934 58.54180832 -0.11399014 60.62255859 -0.11352539 C61.80836517 -0.115746 62.99417175 -0.11796661 64.21591187 -0.12025452 C67 0 67 0 69 1 C69.04254356 2.99954746 69.04080783 5.00041636 69 7 C66.65715206 9.34284794 61.37225063 8.97950971 58.19921875 9.40234375 C55.36311431 9.93216546 53.40725989 10.45043366 51 12 C49.3413132 15.31737361 49.61249109 19.03568733 49.44580078 22.68994141 C49.40369036 23.58027887 49.36157993 24.47061634 49.31819344 25.38793373 C48.86154012 35.91077571 48.85522395 46.43011911 48.8671875 56.9609375 C48.86651167 59.09274303 48.86553933 61.22454849 48.86428833 63.35635376 C48.86282898 67.7782669 48.86491142 72.20015958 48.86962891 76.62207031 C48.87537449 82.28198526 48.87200583 87.94185328 48.86605644 93.60176659 C48.86244461 97.98379878 48.86359145 102.3658198 48.86618423 106.74785233 C48.86684925 108.8362084 48.86604002 110.9245655 48.86370468 113.01292038 C48.86116258 115.91928564 48.86503856 118.82557406 48.87060547 121.73193359 C48.86858124 122.58596268 48.86655701 123.43999176 48.86447144 124.31990051 C48.87988679 128.66882113 49.18294696 132.71204576 50 137 C50.12460342 139.47822357 50.226479 141.95763741 50.3125 144.4375 C50.66667568 151.81616009 51.64696523 159.03090197 52.875 166.3125 C53.11730347 167.80704712 53.11730347 167.80704712 53.36450195 169.33178711 C53.53038818 170.27030518 53.69627441 171.20882324 53.8671875 172.17578125 C54.01269043 173.01020752 54.15819336 173.84463379 54.30810547 174.7043457 C55.09586838 177.31808413 56.28534463 178.89755242 58 181 C58.78044168 182.54751964 59.52917438 184.11132848 60.25 185.6875 C65.87069621 197.06232141 74.9942836 207.70202669 87.08984375 212.24609375 C89 213 89 213 92 215 C107.52120806 217.72239868 124.69981296 218.07237511 139 211 C140.3921875 210.38898438 140.3921875 210.38898438 141.8125 209.765625 C156.56185296 203.00550489 164.28197675 189.90684026 170.18994141 175.29833984 C175.41311264 160.47889017 175.13454211 143.30102319 175.19287109 127.81591797 C175.20104858 126.58159531 175.20922607 125.34727264 175.21765137 124.07554626 C175.24218952 120.04776307 175.25910109 116.02001621 175.2734375 111.9921875 C175.27880964 110.59491092 175.28418713 109.19763436 175.28956985 107.80035782 C175.31110422 101.99397358 175.32984635 96.18759169 175.34119225 90.3811779 C175.35749911 82.09781649 175.3909459 73.81491838 175.44759309 65.53173149 C175.48624713 59.67920581 175.5058176 53.82680458 175.51111281 47.97415459 C175.51476325 44.48751979 175.52675729 41.00138446 175.55921555 37.51488876 C175.59479584 33.63983028 175.59093707 29.76536349 175.58349609 25.89013672 C175.59990143 24.73896866 175.61630676 23.5878006 175.63320923 22.40174866 C175.74024274 16.30021448 175.74024274 16.30021448 172.61270142 11.33255005 C167.63618274 8.79438776 163.81599059 7.71612064 158.1875 7.375 C157.02605469 7.30023438 155.86460937 7.22546875 154.66796875 7.1484375 C153.78753906 7.09945312 152.90710938 7.05046875 152 7 C151.95745644 5.00045254 151.95919217 2.99958364 152 1 C153.58358604 -0.58358604 155.1999036 -0.13513663 157.39624023 -0.14526367 C158.79790688 -0.15483345 158.79790688 -0.15483345 160.22789001 -0.16459656 C161.24452225 -0.16570938 162.26115448 -0.1668222 163.30859375 -0.16796875 C164.34564957 -0.17129715 165.38270538 -0.17462555 166.45118713 -0.17805481 C168.64950109 -0.1831286 170.84782277 -0.185463 173.04614258 -0.18530273 C176.41956201 -0.18748838 179.79265417 -0.20563714 183.16601562 -0.22460938 C185.29687388 -0.2275433 187.42773369 -0.2295281 189.55859375 -0.23046875 C190.57320175 -0.23765427 191.58780975 -0.24483978 192.63316345 -0.25224304 C193.57076004 -0.24916641 194.50835663 -0.24608978 195.47436523 -0.24291992 C196.30185776 -0.24434494 197.12935028 -0.24576996 197.98191833 -0.24723816 C200 0 200 0 202 2 C202.52100869 7.10588517 201.53909271 10.99127766 199.75390625 15.69140625 C197.81682531 21.62308934 197.71236811 27.78837351 197.45288086 33.9699707 C197.41091804 34.93692777 197.36895521 35.90388483 197.32572079 36.90014362 C196.9383296 46.44046703 196.82099471 55.97689987 196.77020454 65.52412987 C196.75332991 68.58501156 196.73009814 71.64579191 196.70530701 74.70661926 C196.63573001 83.39086584 196.57452383 92.07514768 196.52319336 100.75952148 C196.49106316 106.12126335 196.44973621 111.48287377 196.40299797 116.84450722 C196.38721574 118.85789924 196.3747881 120.871321 196.36609077 122.88475609 C196.30979215 135.71509385 195.59807051 148.26631161 194 161 C193.34 161 192.68 161 192 161 C191.88914062 162.14984375 191.77828125 163.2996875 191.6640625 164.484375 C191.0988918 168.9624174 189.90084336 173.01339673 188.375 177.25 C188.10921143 177.98871338 187.84342285 178.72742676 187.56958008 179.48852539 C183.4031278 190.65927249 177.40719159 199.56336115 169 208 C168.39800781 208.62519531 167.79601562 209.25039062 167.17578125 209.89453125 C159.14961273 217.60731358 148.02121081 223.4531634 137 225 C137 225.66 137 226.32 137 227 C118.1290244 229.99724873 100.7189401 231.88576109 82 227 C80.99791504 226.74259033 80.99791504 226.74259033 79.97558594 226.47998047 C65.83288342 222.75979144 55.43829612 216.25894395 45 206 C44.37351562 205.38640625 43.74703125 204.7728125 43.1015625 204.140625 C29.07660718 189.29067231 24.53719125 169.92811456 23.1953125 150.171875 C23.13701389 149.39475914 23.07871529 148.61764328 23.01865005 147.81697845 C21.56306552 128.24522382 21.68573771 108.66283435 21.85229492 89.05029297 C21.92012391 80.6847177 21.95717847 72.31889301 21.9921875 63.953125 C21.99603203 63.06877274 21.99987656 62.18442047 22.00383759 61.27326965 C22.04529579 50.60787651 22.01660314 39.95696483 21.6328125 29.296875 C21.6014621 28.32502258 21.57011169 27.35317017 21.53781128 26.35186768 C21.31169317 21.26533753 20.75300317 16.79744114 19 12 C17.23377831 10.57518232 17.23377831 10.57518232 15 10 C14.278125 9.649375 13.55625 9.29875 12.8125 8.9375 C9.51856695 7.83952232 6.43984838 7.57578813 2.98828125 7.34375 C1 7 1 7 -1 5 C-0.625 2.375 -0.625 2.375 0 0 Z " fill="#0D0C0C" transform="translate(796,46)"/>
<path d="M0 0 C0.7945459 0.10086914 1.5890918 0.20173828 2.40771484 0.30566406 C3.14715332 0.42522461 3.8865918 0.54478516 4.6484375 0.66796875 C5.27669434 0.76746826 5.90495117 0.86696777 6.55224609 0.96948242 C9.81226248 2.29537601 12.42283495 4.08867098 14.625 6.8125 C15.32202148 10.28588867 15.32202148 10.28588867 15.24609375 14.23046875 C15.23691673 15.27815178 15.23691673 15.27815178 15.22755432 16.34700012 C15.20072615 18.56616591 15.13163081 20.78179232 15.0625 23 C15.04096307 24.50191738 15.02205548 26.00387491 15.00585938 27.50585938 C14.83897054 38.38455893 14.83897054 38.38455893 13.625 40.8125 C12.305 40.8125 10.985 40.8125 9.625 40.8125 C8.68626309 38.79224095 7.74907197 36.7712636 6.8125 34.75 C6.26335937 33.56535156 5.71421875 32.38070312 5.1484375 31.16015625 C4.02127328 28.68328514 2.9512528 26.21098144 1.9375 23.6875 C-0.32344177 18.7349609 -3.08138259 17.28454091 -8.0625 15.25 C-9.05636719 14.83621094 -10.05023437 14.42242187 -11.07421875 13.99609375 C-22.6317316 9.85180216 -36.38178405 8.35151255 -48.0625 12.875 C-55.76468859 16.72609429 -61.92470776 21.70113278 -65.52734375 29.67578125 C-67.99231729 38.79731928 -67.88999995 50.02837423 -63.6953125 58.59375 C-58.80062399 66.81914372 -52.94317597 73.86765444 -46.375 80.8125 C-45.80007813 81.42867188 -45.22515625 82.04484375 -44.6328125 82.6796875 C-40.5209533 86.94893844 -36.01070754 90.64428625 -31.3984375 94.359375 C-27.62447825 97.42145046 -23.92581017 100.56645795 -20.22558594 103.71679688 C-16.69146646 106.7183778 -13.111313 109.65366159 -9.5 112.5625 C5.38658701 124.75224154 16.09127832 140.31750098 18.625 159.8125 C20.02372253 176.62370438 17.9975033 192.96328726 7.625 206.8125 C1.54627066 213.90745864 -4.96390635 219.63905659 -13.375 223.8125 C-14.65697266 224.48732422 -14.65697266 224.48732422 -15.96484375 225.17578125 C-35.43367677 234.43235123 -60.22851982 234.24622444 -80.375 227.8125 C-83.28174839 227.12980123 -86.18916185 226.45700823 -89.10546875 225.81640625 C-92.29477305 224.40564686 -93.47556654 222.73082997 -95.375 219.8125 C-95.86083984 216.35839844 -95.86083984 216.35839844 -95.8359375 212.421875 C-95.83502106 211.71782532 -95.83410461 211.01377563 -95.8331604 210.28839111 C-95.82713809 208.80238077 -95.81143302 207.3163818 -95.78662109 205.83056641 C-95.75033409 203.58319108 -95.74560074 201.33748035 -95.74609375 199.08984375 C-95.70889209 191.772705 -95.3796376 184.90089857 -93.375 177.8125 C-92.055 177.4825 -90.735 177.1525 -89.375 176.8125 C-88.14041274 179.28167451 -88.16117033 181.18225477 -88 183.9375 C-87.12619399 194.09218497 -83.04271428 202.68045068 -75.5 209.625 C-71.99311165 212.51033165 -68.69975744 214.32120433 -64.375 215.8125 C-63.66754639 216.06644531 -62.96009277 216.32039062 -62.23120117 216.58203125 C-55.71928193 218.75557083 -49.89488302 219.21194378 -43.0625 219.0625 C-42.10021484 219.05734375 -41.13792969 219.0521875 -40.14648438 219.046875 C-32.46384416 219.35345575 -32.46384416 219.35345575 -25.796875 216.38671875 C-25.32765625 215.86722656 -24.8584375 215.34773437 -24.375 214.8125 C-23.14244807 214.05421261 -21.8908539 213.32628306 -20.625 212.625 C-12.45928733 207.58147159 -8.23231729 200.84530951 -5.375 191.8125 C-5.18035156 191.20535156 -4.98570313 190.59820312 -4.78515625 189.97265625 C-4.18386572 186.80585946 -4.20368357 183.72053044 -4.1875 180.5 C-4.17332031 179.22511719 -4.15914062 177.95023438 -4.14453125 176.63671875 C-5.03422724 161.87379721 -13.30481769 149.99113043 -23.375 139.8125 C-25.98434314 137.52832116 -28.65982321 135.36018212 -31.375 133.203125 C-82.23528544 92.67383504 -82.23528544 92.67383504 -88.375 63.8125 C-89.43069004 51.40212865 -89.3636706 39.95237539 -83.375 28.8125 C-82.91738281 27.91402344 -82.45976563 27.01554687 -81.98828125 26.08984375 C-75.06715801 13.51805004 -62.97139535 4.31694819 -49.375 -0.1875 C-33.53940518 -2.90196795 -15.84712088 -2.19973346 0 0 Z " fill="#0B0A0A" transform="translate(1587.375,26.1875)"/>
<path d="M0 0 C1.15910889 -0.00161133 2.31821777 -0.00322266 3.51245117 -0.00488281 C31.73052687 0.35552687 31.73052687 0.35552687 38.75 7.375 C38.92510386 10.02791757 38.98155483 12.57486174 38.9453125 15.2265625 C38.9424826 16.00059418 38.93965271 16.77462585 38.93673706 17.57211304 C38.92552754 20.04823157 38.90042203 22.5239905 38.875 25 C38.86497118 26.67707812 38.85584516 28.35416189 38.84765625 30.03125 C38.82558574 34.14597223 38.79105102 38.26042511 38.75 42.375 C36.875 42.08984375 36.875 42.08984375 34.75 41.375 C32.25543323 37.08746337 30.52530419 32.76814389 28.8125 28.125 C27.20828524 23.95787639 25.52812712 21.89375141 21.75 19.375 C21.75 18.715 21.75 18.055 21.75 17.375 C20.3578125 17.25125 20.3578125 17.25125 18.9375 17.125 C15.61611173 16.68258844 12.94316835 15.6381361 9.875 14.3125 C0.22759203 10.65313836 -13.54645331 10.77918217 -23.25 14.375 C-30.78679658 18.22960348 -36.0927343 23.42001289 -40.125 30.8125 C-43.28852562 40.64610975 -42.07914678 51.92704093 -37.98046875 61.2265625 C-30.21011285 75.36404976 -18.09244087 86.67083 -5.40039062 96.36499023 C-0.63296118 100.01381601 3.77737257 103.95824024 8.171875 108.05078125 C10.6167957 110.2549143 13.13368435 112.25485363 15.75 114.25 C30.65878607 126.12969938 41.211021 142.12335101 43.75 161.375 C45.12407225 178.52212671 43.28832981 194.92763568 32.16015625 208.72265625 C27.0653831 214.65254921 21.55206425 219.47689395 14.75 223.375 C13.6775 224.07625 12.605 224.7775 11.5 225.5 C-8.00819794 236.23845758 -32.26407924 235.01014912 -53.13964844 229.88769531 C-55.00538883 229.43442659 -56.88109722 229.02262488 -58.7578125 228.6171875 C-59.72460938 228.39289063 -60.69140625 228.16859375 -61.6875 227.9375 C-62.49058594 227.75316406 -63.29367188 227.56882813 -64.12109375 227.37890625 C-67.18463787 225.93426251 -68.39905159 224.20565195 -70.25 221.375 C-70.73583984 217.92089844 -70.73583984 217.92089844 -70.7109375 213.984375 C-70.71002106 213.28032532 -70.70910461 212.57627563 -70.7081604 211.85089111 C-70.70213809 210.36488077 -70.68643302 208.8788818 -70.66162109 207.39306641 C-70.62533409 205.14569108 -70.62060074 202.89998035 -70.62109375 200.65234375 C-70.58389209 193.335205 -70.2546376 186.46339857 -68.25 179.375 C-66.6 179.705 -64.95 180.035 -63.25 180.375 C-63.24742188 181.00664062 -63.24484375 181.63828125 -63.2421875 182.2890625 C-62.77140057 193.17993349 -59.13603828 202.78401757 -51.25 210.375 C-51.25 211.035 -51.25 211.695 -51.25 212.375 C-46.66664092 214.29705381 -41.97065967 215.83230076 -37.25 217.375 C-37.25 218.035 -37.25 218.695 -37.25 219.375 C-30.84093977 220.32954089 -24.59950778 220.52621258 -18.125 220.5 C-17.16207031 220.50386719 -16.19914062 220.50773438 -15.20703125 220.51171875 C-10.44229226 220.50516478 -5.93422062 220.36862256 -1.25 219.375 C-1.25 218.715 -1.25 218.055 -1.25 217.375 C0.25294052 216.41561307 1.80500507 215.53270376 3.375 214.6875 C12.72050448 209.20410104 16.98270028 201.69419479 20.375 191.49609375 C22.90343004 177.19466132 19.33599839 164.48322345 11.75 152.375 C6.70763764 145.74475803 0.83680538 140.38045467 -5.75390625 135.33203125 C-8.34190283 133.30294473 -10.76124102 131.15677954 -13.1875 128.9375 C-16.53119513 125.87981301 -19.94610955 122.9973109 -23.5 120.1875 C-40.66554453 106.2268379 -60.68442197 86.19522827 -63.53393555 63.07080078 C-63.65021022 60.72596963 -63.66674689 58.40973695 -63.625 56.0625 C-63.6108606 54.82028687 -63.6108606 54.82028687 -63.59643555 53.55297852 C-63.20808769 37.67094363 -57.64364699 25.40603511 -46.25 14.375 C-32.48315512 2.5166826 -17.71222194 0.02343662 0 0 Z " fill="#0A0909" transform="translate(107.25,24.625)"/>
<path d="M0 0 C21.45 0 42.9 0 65 0 C65.495 2.475 65.495 2.475 66 5 C63.8462818 7.1537182 58.67254844 6.72908486 55.63476562 6.98632812 C52.51499556 7.33093616 50.35077757 7.73910353 47.81051636 9.62846375 C45.3991394 12.78704767 45.46073823 14.78202848 45.39501953 18.73754883 C45.37065134 19.75631764 45.37065134 19.75631764 45.34579086 20.79566765 C45.29687759 23.07871995 45.27704364 25.36104915 45.2578125 27.64453125 C45.23026853 29.28849908 45.20143543 30.93244573 45.17141724 32.57637024 C45.08095859 38.05073676 45.03750095 43.52504973 45 49 C44.9927037 49.95460869 44.98540741 50.90921738 44.97789001 51.8927536 C44.8688595 66.41241306 44.85768413 80.93142766 44.87304688 95.45141602 C44.87565273 99.76899948 44.87078087 104.08656255 44.86619091 108.40414333 C44.84841645 128.09156055 44.87021962 147.77283916 45.44921875 167.453125 C45.46890087 168.14047415 45.48858299 168.8278233 45.50886154 169.53600121 C45.80287755 179.45280003 46.40917608 189.20197088 48 199 C48.10828125 199.95519531 48.2165625 200.91039062 48.328125 201.89453125 C48.63742003 204.6181341 48.63742003 204.6181341 50 208 C56.72580196 212.30451325 65.08042159 212.15398385 72.875 212.203125 C73.60259521 212.20882507 74.33019043 212.21452515 75.07983398 212.22039795 C76.61261576 212.22978015 78.14541708 212.23635467 79.67822266 212.24023438 C81.96685264 212.24986058 84.2545516 212.2809152 86.54296875 212.3125 C94.16721916 212.36717033 101.49061367 211.9986499 109 210.609375 C109.67683838 210.48427551 110.35367676 210.35917603 111.05102539 210.23028564 C114.11387951 209.60112618 115.74422694 209.25577306 118 207 C118.40809543 204.84616303 118.73046599 202.67552453 119 200.5 C119.77777778 194.22222222 119.77777778 194.22222222 122 192 C124.93453261 192.36681658 125.86437246 192.86437246 128 195 C130.7716786 202.5461185 129.99726809 213.58994655 127.0625 220.9375 C125.31875 224.68125 125.31875 224.68125 124 226 C122.40577964 226.09597204 120.8072955 226.12187924 119.21018982 226.12025452 C118.17387421 226.12162918 117.13755859 226.12300385 116.06983948 226.12442017 C114.92329391 226.12082489 113.77674835 226.11722961 112.59545898 226.11352539 C111.39562378 226.11367142 110.19578857 226.11381744 108.95959473 226.1139679 C105.66014809 226.11338894 102.36076336 226.10835978 99.0613277 226.10139394 C95.61665703 226.09515973 92.17198562 226.09455655 88.72731018 226.09336853 C82.2001727 226.09025541 75.67305189 226.08204229 69.14592177 226.07201904 C61.71677984 226.0608573 54.28763714 226.0553473 46.85848892 226.05032361 C31.57231628 226.03985966 16.28616028 226.0222606 1 226 C1 224.02 1 222.04 1 220 C1.59167969 219.84144531 2.18335938 219.68289062 2.79296875 219.51953125 C8.11484464 217.94814538 11.32707812 216.36159473 15 212 C15.33 211.67 15.66 211.34 16 211 C16.23161608 208.6623774 16.40154358 206.35012407 16.52783203 204.00610352 C16.58985904 202.92788377 16.58985904 202.92788377 16.65313911 201.82788181 C17.09323849 193.85679123 17.35421095 185.88262449 17.5546875 177.90234375 C17.57562344 177.08883894 17.59655937 176.27533413 17.61812973 175.43717766 C18.1742516 153.18568671 18.15197111 130.93013707 18.13037109 108.6730957 C18.12579554 103.92015331 18.12582616 99.16724907 18.13037109 94.41430664 C18.14508652 78.94239431 18.11885733 63.47150857 18 48 C17.99350937 47.09899315 17.98701874 46.1979863 17.98033142 45.26967621 C17.94318335 40.53603549 17.88437221 35.80383976 17.78292465 31.07111931 C17.74376682 29.10657817 17.72199684 27.14171386 17.70095825 25.17689514 C17.52724435 18.88914223 17.32654897 14.73554902 13 10 C11.11024098 8.56243243 11.11024098 8.56243243 9.0625 7.75 C8.02802734 7.2859375 8.02802734 7.2859375 6.97265625 6.8125 C6.32167969 6.544375 5.67070312 6.27625 5 6 C4.01 5.5875 3.02 5.175 2 4.75 C1.34 4.5025 0.68 4.255 0 4 C0 2.68 0 1.36 0 0 Z " fill="#0C0B0B" transform="translate(405,31)"/>
<path d="M0 0 C-0.875 3.875 -0.875 3.875 -2 5 C-3.56037521 5.13223519 -5.12367031 5.23068529 -6.6875 5.3125 C-11.44121234 5.74094618 -14.29304749 6.84909037 -18 10 C-21.25834732 14.88752099 -21.1260618 19.36195249 -21.13371277 25.13969421 C-21.1371111 26.20132608 -21.1371111 26.20132608 -21.14057809 27.28440505 C-21.14689564 29.65015068 -21.14609016 32.01583868 -21.14526367 34.3815918 C-21.14825663 36.08036879 -21.15165948 37.77914511 -21.15544128 39.47792053 C-21.16427326 44.0897227 -21.16661911 48.7015063 -21.16725707 53.31331611 C-21.16796823 56.19710276 -21.17010384 59.0808847 -21.17275429 61.96467018 C-21.18200627 72.03268355 -21.18608951 82.10068369 -21.18530273 92.16870117 C-21.18470254 101.5406769 -21.19524337 110.91259495 -21.2110464 120.28455609 C-21.22414339 128.33995098 -21.2294857 136.39532708 -21.22884732 144.45073253 C-21.2285929 149.25765403 -21.23141332 154.06452431 -21.24202538 158.87143517 C-21.25174227 163.39650181 -21.251761 167.92146866 -21.24450874 172.44653893 C-21.24346723 174.10166572 -21.24579986 175.75679884 -21.2518692 177.41191483 C-21.80117431 193.75634475 -21.80117431 193.75634475 -15 208 C-12.39562767 209.41190564 -12.39562767 209.41190564 -10 210 C-10 210.66 -10 211.32 -10 212 C7.55170484 214.08977795 30.64471255 216.17764373 47 208 C48.86739896 204.57643524 49.94268418 201.18156689 51.1171875 197.4609375 C51.32408203 196.83155273 51.53097656 196.20216797 51.74414062 195.55371094 C52.35695683 193.68016295 52.94066465 191.79717205 53.5234375 189.9140625 C55 187 55 187 57.6640625 186.0859375 C58.43492188 186.05757812 59.20578125 186.02921875 60 186 C61.03587077 189.20955371 60.91774941 191.31017652 60.1484375 194.57421875 C59.35909433 198.17782815 58.73076235 201.73160592 58.2890625 205.39453125 C58.17820312 206.28720703 58.06734375 207.17988281 57.953125 208.09960938 C57.73215606 209.92654899 57.52141215 211.75475104 57.3203125 213.58398438 C57.15015625 214.91333008 57.15015625 214.91333008 56.9765625 216.26953125 C56.88455566 217.05948486 56.79254883 217.84943848 56.69775391 218.66333008 C55.67497331 222.08846412 54.69482046 223.57042595 52 226 C48.30824101 226.75197281 44.65266151 226.6306977 40.89746094 226.56762695 C39.76546265 226.56835709 38.63346436 226.56908722 37.46716309 226.56983948 C33.72241438 226.56635375 29.97890664 226.52744291 26.234375 226.48828125 C23.63935017 226.47895671 21.04431655 226.47183891 18.44927979 226.46684265 C12.31513212 226.44969727 6.18149723 226.41028449 0.04754281 226.3600952 C-6.93663448 226.30419081 -13.92083318 226.27671261 -20.90517855 226.25161803 C-35.27035848 226.19936762 -49.63516339 226.1114323 -64 226 C-63.67 224.02 -63.34 222.04 -63 220 C-60.36 220 -57.72 220 -55 220 C-55 219.34 -55 218.68 -55 218 C-53.824375 217.5978125 -53.824375 217.5978125 -52.625 217.1875 C-49.71885077 216.15185568 -49.71885077 216.15185568 -48 213 C-47.66924725 210.00686783 -47.66924725 210.00686783 -47.68115234 206.52636719 C-47.67112088 205.86313194 -47.66108942 205.1998967 -47.65075397 204.51656342 C-47.61953742 202.276676 -47.60269717 200.03691409 -47.5859375 197.796875 C-47.56686807 196.17591502 -47.54705676 194.55496363 -47.52656555 192.934021 C-47.47340339 188.47643385 -47.43390937 184.01882258 -47.39809799 179.56106567 C-47.37502872 176.75349569 -47.34915322 173.94596505 -47.32241821 171.13842773 C-47.20547998 158.73979488 -47.11799874 146.34108978 -47.04290771 133.94213867 C-47.01405663 129.18772558 -46.98264268 124.43333863 -46.94927979 119.67895508 C-46.84301086 104.45320748 -46.76291314 89.22763231 -46.71490479 74.00158691 C-46.69856385 68.99881964 -46.6732592 63.99621676 -46.64056396 58.99353027 C-46.60249812 53.05438933 -46.58420861 47.11550551 -46.58092308 41.17624664 C-46.57649453 38.97496317 -46.56521256 36.77368158 -46.54668617 34.57247162 C-46.52246663 31.54996117 -46.52312869 28.52843618 -46.5300293 25.50585938 C-46.51721609 24.62442638 -46.50440289 23.74299339 -46.4912014 22.83485031 C-46.53720342 17.41978301 -47.34091355 14.2645203 -51 10 C-53.87554251 8.27337216 -53.87554251 8.27337216 -57.0625 7.1875 C-58.10535156 6.78917969 -59.14820313 6.39085937 -60.22265625 5.98046875 C-62.14233641 5.30277576 -64.06868031 4.64377323 -66 4 C-66 3.01 -66 2.02 -66 1 C-43.9900196 0.15742694 -22.02505249 -0.13374705 0 0 Z " fill="#0C0B0B" transform="translate(1318,31)"/>
<path d="M0 0 C1.15249741 0.00222061 2.30499481 0.00444122 3.49241638 0.00672913 C5.4443264 0.00684242 5.4443264 0.00684242 7.43566895 0.00695801 C8.86661313 0.01206543 10.29755694 0.01728144 11.72850037 0.02259827 C13.18438672 0.02446249 14.64027369 0.02588637 16.09616089 0.02688599 C19.93488791 0.03071086 23.77357731 0.04054088 27.61228943 0.05158997 C31.52667227 0.06180474 35.44106117 0.06638375 39.35545349 0.07142639 C47.04101755 0.08216318 54.72655057 0.09923923 62.41209412 0.12025452 C62.53709412 2.99525452 62.53709412 2.99525452 62.41209412 6.12025452 C59.1617192 9.37062944 54.78726581 9.44212222 50.38084412 10.33900452 C47.3179932 10.87844141 47.3179932 10.87844141 45.41209412 13.12025452 C42.19264254 26.95168409 43.132476 41.75685557 43.17637467 55.84073472 C43.18532019 59.33166674 43.18339433 62.82259644 43.18301392 66.3135376 C43.18394597 72.19127149 43.19255302 78.06895331 43.20628357 83.94667053 C43.22015181 89.90338675 43.22730875 95.86005515 43.22679138 101.81678772 C43.21390234 147.97774362 43.21390234 147.97774362 44.41209412 194.12025452 C44.4831837 196.11411485 44.55332585 198.10800931 44.62229919 200.10194397 C44.81468317 210.50656879 44.81468317 210.50656879 48.41209412 220.12025452 C50.65636456 221.58417979 50.65636456 221.58417979 53.41209412 221.12025452 C56.76681443 219.72032513 56.76681443 219.72032513 60.09959412 217.68275452 C66.25553834 214.12025452 66.25553834 214.12025452 68.41209412 214.12025452 C67.03776027 218.12872825 65.46741541 221.14750948 62.41209412 224.12025452 C58.66209412 224.93275452 58.66209412 224.93275452 55.41209412 225.12025452 C55.41209412 225.78025452 55.41209412 226.44025452 55.41209412 227.12025452 C34.29209412 227.12025452 13.17209412 227.12025452 -8.58790588 227.12025452 C-8.58790588 223.12025452 -8.58790588 223.12025452 -6.58790588 221.12025452 C-3.68946838 220.77650452 -3.68946838 220.77650452 -0.21290588 220.62025452 C5.45162522 220.48435662 5.45162522 220.48435662 10.41209412 218.12025452 C14.03375366 213.55219116 14.92754363 210.48345112 15.01707458 204.69129944 C15.03332005 203.95090487 15.04956551 203.21051029 15.06630325 202.44767952 C15.11537839 199.93610381 15.13513483 197.42519415 15.15428162 194.91322327 C15.18195216 193.0744354 15.21079161 191.23566483 15.24067688 189.39691162 C15.33416721 182.97152975 15.37615341 176.54618239 15.41209412 170.12025452 C15.41939041 168.90765205 15.42668671 167.69504959 15.4342041 166.4457016 C15.54291046 147.64724448 15.55606927 128.84923663 15.54066634 110.05053508 C15.53631044 104.13134619 15.53943168 98.21217855 15.54429162 92.29299098 C15.54887476 86.46847571 15.54944963 80.64396943 15.54685295 74.81945294 C15.54532461 71.38928713 15.54499906 67.95913552 15.54838943 64.52897072 C15.55413709 56.0584751 15.50832328 47.59018245 15.41209412 39.12025452 C15.40420616 37.99259548 15.39631821 36.86493645 15.38819122 35.70310593 C15.357716 32.49879041 15.29283082 29.29714974 15.21629333 26.09364319 C15.21108736 25.15138288 15.20588139 24.20912256 15.20051765 23.23830891 C15.05300965 18.72534882 14.88259583 16.72602479 12.03834534 13.0640564 C9.21526699 10.97457427 7.14091453 10.16449027 3.72459412 9.43275452 C-1.40735033 8.30081007 -1.40735033 8.30081007 -3.58790588 6.12025452 C-3.77540588 3.55775452 -3.77540588 3.55775452 -3.58790588 1.12025452 C-2.58790588 0.12025452 -2.58790588 0.12025452 0 0 Z " fill="#0A0909" transform="translate(1410.587905883789,27.879745483398438)"/>
<path d="M0 0 C1.2065625 0.0309375 1.2065625 0.0309375 2.4375 0.0625 C2.70175781 1.04089844 2.96601562 2.01929687 3.23828125 3.02734375 C4.46547545 7.3198346 6.03853828 11.45485944 7.625 15.625 C10.68466746 23.77467231 13.40244227 32.00163986 15.9519043 40.32446289 C17.57054337 45.55515092 19.41652918 50.61369674 21.48950195 55.6809082 C22.88869537 59.19600781 24.06088672 62.76487756 25.1875 66.375 C25.40792969 67.05111328 25.62835937 67.72722656 25.85546875 68.42382812 C26.99544832 72.05264508 27.80931947 75.25135041 27.4375 79.0625 C25.77033316 80.72966684 23.7644386 80.18994882 21.47460938 80.19189453 C20.41681274 80.19504669 19.35901611 80.19819885 18.26916504 80.20144653 C17.11815308 80.1994223 15.96714111 80.19739807 14.78125 80.1953125 C13.02234436 80.19674759 13.02234436 80.19674759 11.22790527 80.19821167 C8.74291938 80.1988937 6.25793171 80.19703784 3.77294922 80.19287109 C-0.04593887 80.18752319 -3.86470935 80.19281536 -7.68359375 80.19921875 C-10.09114609 80.19855797 -12.49869837 80.19727682 -14.90625 80.1953125 C-16.63276794 80.19834885 -16.63276794 80.19834885 -18.39416504 80.20144653 C-19.45196167 80.19829437 -20.5097583 80.19514221 -21.59960938 80.19189453 C-23.00406311 80.19070114 -23.00406311 80.19070114 -24.43688965 80.18948364 C-26.5625 80.0625 -26.5625 80.0625 -27.5625 79.0625 C-27.1348351 73.32046979 -25.85314103 68.47922008 -23.8125 63.125 C-21.74728588 57.50415407 -19.86875115 51.88995189 -18.25 46.125 C-15.78058749 37.40155463 -12.78819758 28.87000025 -9.7722168 20.32250977 C-7.74256256 14.55455256 -5.82833185 8.79038013 -4.16259766 2.90600586 C-3.24354545 0.0826685 -3.07441735 0.07498579 0 0 Z " fill="#F8F8F8" transform="translate(1112.5625,76.9375)"/>
<path d="M0 0 C1.65 0 3.3 0 5 0 C10.50306875 14.61535941 15.62333675 29.3526225 20.64575195 44.1394043 C21.73488063 47.34544408 22.83199496 50.54869444 23.93080807 53.75142574 C24.98918039 56.84157505 26.03895858 59.93464178 27.08984375 63.02734375 C27.68030739 64.74436745 27.68030739 64.74436745 28.28269958 66.49607849 C28.64050003 67.55561234 28.99830048 68.61514618 29.36694336 69.70678711 C29.68336288 70.63543076 29.99978241 71.5640744 30.32579041 72.52085876 C31 75 31 75 31 79 C28.47255912 80.26372044 26.73619692 80.12022795 23.90771484 80.11352539 C22.31629166 80.11341209 22.31629166 80.11341209 20.69271851 80.11329651 C18.96923691 80.10555458 18.96923691 80.10555458 17.2109375 80.09765625 C15.45059677 80.09553383 15.45059677 80.09553383 13.6546936 80.09336853 C9.89477015 80.08775689 6.13490555 80.07520238 2.375 80.0625 C-0.16926998 80.0574865 -2.71354088 80.05292333 -5.2578125 80.04882812 C-11.50522853 80.03778368 -17.75261006 80.02103418 -24 80 C-23.86426475 78.41824497 -23.72204232 76.83704589 -23.57714844 75.25610352 C-23.49865662 74.37551773 -23.42016479 73.49493195 -23.33929443 72.58766174 C-22.84367572 68.80777781 -21.63097211 65.47153121 -20.25 61.9375 C-18.10018612 56.1536154 -16.13947512 50.36916311 -14.4375 44.4375 C-14.23398926 43.73206055 -14.03047852 43.02662109 -13.82080078 42.29980469 C-13.41361638 40.88810253 -13.00671253 39.47631943 -12.60009766 38.06445312 C-8.86544975 25.21653503 -4.48649302 12.60185295 0 0 Z " fill="#F8F8F8" transform="translate(268,77)"/>
<path d="M0 0 C-1.37433385 4.00847373 -2.94467871 7.02725496 -6 10 C-9.75 10.8125 -9.75 10.8125 -13 11 C-13 11.66 -13 12.32 -13 13 C-34.12 13 -55.24 13 -77 13 C-77 9 -77 9 -75 7 C-72.3984375 6.8046875 -72.3984375 6.8046875 -69.375 6.875 C-67.87066406 6.90207031 -67.87066406 6.90207031 -66.3359375 6.9296875 C-65.56507812 6.95289063 -64.79421875 6.97609375 -64 7 C-64 7.33 -64 7.66 -64 8 C-65.04800781 8.05607422 -65.04800781 8.05607422 -66.1171875 8.11328125 C-67.48230469 8.21189453 -67.48230469 8.21189453 -68.875 8.3125 C-70.23238281 8.39951172 -70.23238281 8.39951172 -71.6171875 8.48828125 C-74.36221601 8.7882039 -74.36221601 8.7882039 -76 12 C-68.61984341 11.89247023 -61.23978349 11.77983106 -53.85980511 11.66066074 C-50.43301772 11.60548647 -47.00622172 11.55207534 -43.5793457 11.50268555 C-39.64004749 11.44583335 -35.7008926 11.38132688 -31.76171875 11.31640625 C-29.9147364 11.29133751 -29.9147364 11.29133751 -28.03044128 11.26576233 C-26.31900688 11.2358445 -26.31900688 11.2358445 -24.57299805 11.20532227 C-23.06409248 11.18200584 -23.06409248 11.18200584 -21.52470398 11.15821838 C-18.87395947 11.1003603 -18.87395947 11.1003603 -16 10 C-16.99 9.34 -17.98 8.68 -19 8 C-18.03900391 7.63648438 -18.03900391 7.63648438 -17.05859375 7.265625 C-12.88482412 5.64836702 -8.85823226 4.03394298 -5 1.75 C-2 0 -2 0 0 0 Z " fill="#585757" transform="translate(1479,242)"/>
<path d="M0 0 C1.11696762 0.00222061 2.23393524 0.00444122 3.38475037 0.00672913 C4.64598221 0.00680466 5.90721405 0.00688019 7.20666504 0.00695801 C8.59341979 0.01206542 9.98017414 0.01728142 11.3669281 0.02259827 C12.77797394 0.0244625 14.18902042 0.02588638 15.60006714 0.02688599 C19.3204272 0.03071072 23.04074845 0.04054062 26.76109314 0.05158997 C30.55482966 0.06180504 34.34857243 0.06638381 38.14231873 0.07142639 C45.59090416 0.08216294 53.03945758 0.09923882 60.48802185 0.12025452 C60.48802185 0.45025452 60.48802185 0.78025452 60.48802185 1.12025452 C59.73491226 1.12390015 58.98180267 1.12754578 58.20587158 1.13130188 C51.09926033 1.16921041 43.99311137 1.22609505 36.88684559 1.30415726 C33.23362273 1.34362222 29.58064052 1.37581511 25.92723083 1.39125061 C22.39967186 1.40642429 18.87277455 1.44088069 15.34551048 1.48856354 C13.34874913 1.51056335 11.3518011 1.51272765 9.35491943 1.51460266 C8.13403122 1.53432129 6.91314301 1.55403992 5.65525818 1.57435608 C4.04642509 1.58767975 4.04642509 1.58767975 2.40509033 1.60127258 C-1.16964969 2.23726228 -2.88466917 3.67766235 -5.51197815 6.12025452 C-3.21727205 0.15401865 -3.21727205 0.15401865 0 0 Z " fill="#D8D7D7" transform="translate(241.51197814941406,168.87974548339844)"/>
<path d="M0 0 C0.66 0.33 1.32 0.66 2 1 C-0.11905463 3.17277714 -2.24472878 5.33826908 -4.375 7.5 C-4.97828125 8.12003906 -5.5815625 8.74007812 -6.203125 9.37890625 C-6.78320312 9.96542969 -7.36328125 10.55195312 -7.9609375 11.15625 C-8.49509277 11.70087891 -9.02924805 12.24550781 -9.57958984 12.80664062 C-11 14 -11 14 -13 14 C-10.38256198 8.10428565 -5.28256657 3.59214527 0 0 Z " fill="#2B2A2A" transform="translate(1522,34)"/>
<path d="M0 0 C1.65 0.33 3.3 0.66 5 1 C4.67 1.99 4.34 2.98 4 4 C4 3.34 4 2.68 4 2 C0.88214887 2.64644661 0.88214887 2.64644661 0 5 C-0.66 5 -1.32 5 -2 5 C-1.34 3.35 -0.68 1.7 0 0 Z " fill="#504F4F" transform="translate(1374,217)"/>
</svg>
